<svg width="29" height="20" viewBox="0 0 29 20" fill="none" xmlns="http://www.w3.org/2000/svg">
<path fill-rule="evenodd" clip-rule="evenodd" d="M3.28094 3.11769L4.98415 1.77124L0.234253 0.370117L1.96329 5.0107L3.28094 3.11769ZM9.20977 16.0169C11.5208 16.0169 13.5562 14.837 14.7465 13.0468C15.9369 14.837 17.9723 16.0169 20.2833 16.0169C23.9527 16.0169 26.9274 13.0423 26.9274 9.37282C26.9274 5.70338 23.9527 2.7287 20.2833 2.7287C17.9723 2.7287 15.9369 3.9086 14.7465 5.69885C13.5562 3.9086 11.5208 2.7287 9.20977 2.7287C5.54032 2.7287 2.56565 5.70338 2.56565 9.37282C2.56565 13.0423 5.54032 16.0169 9.20977 16.0169ZM9.20984 11.5875C7.98669 11.5875 6.99514 10.596 6.99514 9.37283C6.99514 8.14969 7.98669 7.15813 9.20984 7.15813C10.433 7.15813 11.4245 8.14969 11.4245 9.37283C11.4245 10.596 10.433 11.5875 9.20984 11.5875ZM20.2834 11.5875C19.0603 11.5875 18.0687 10.596 18.0687 9.37283C18.0687 8.14969 19.0603 7.15813 20.2834 7.15813C21.5066 7.15813 22.4981 8.14969 22.4981 9.37283C22.4981 10.596 21.5066 11.5875 20.2834 11.5875ZM12.5319 17.678L14.7466 15.4633L16.9613 17.678L14.7466 20L12.5319 17.678ZM24.1929 1.77124L25.8961 3.11769L27.2138 5.0107L28.9428 0.370117L24.1929 1.77124Z" fill="url(#paint0_linear)"/>
<defs>
<linearGradient id="paint0_linear" x1="0.351044" y1="0.5" x2="26.9087" y2="23.1221" gradientUnits="userSpaceOnUse">
<stop stop-color="#2A528F"/>
<stop offset="1" stop-color="#9274D0"/>
</linearGradient>
</defs>
</svg>
