<svg width="68" height="20" viewBox="0 0 68 20" fill="none" xmlns="http://www.w3.org/2000/svg">
<path d="M5.472 5.733V3.947H0.285V6.303H5.434V8.906H6.992V18.805H9.348V8.906H11.115V5.733H9.348V0.755H6.992V5.733H5.472ZM5.244 18.596V12.63H0.513V18.596H5.244ZM3.382 16.24H2.47V14.777H3.382V16.24ZM0.646 1.135V3.339H5.092V1.135H0.646ZM0.646 6.892V9.115H5.092V6.892H0.646ZM0.646 9.742V11.984H5.092V9.742H0.646ZM21.3676 5.125C21.1586 4.403 21.1206 4.27 20.9876 3.909H22.5266V1.401H19.7526C19.7716 1.287 19.8476 0.944999 19.8666 0.868999L17.8906 0.584C17.7006 1.477 17.4536 2.37 16.9406 3.358V1.401H15.0596C15.0976 1.268 15.0976 1.249 15.1926 0.887999L13.1216 0.602999C12.6846 1.952 12.2096 2.788 11.5066 3.662L12.5896 5.353V13.029H14.4706C14.4516 13.428 14.4516 13.466 14.4326 13.618H11.6586V16.069H13.5966C12.9506 16.734 12.3616 16.81 11.9816 16.848L12.7416 19.128C14.6796 18.406 15.5916 16.924 15.9146 16.069H18.0236V18.824H19.9996V16.069H22.5266V13.618H19.9996V13.029H21.6526V5.125H21.3676ZM18.4606 5.125C18.6506 4.745 18.7836 4.441 18.9736 3.947C19.1256 4.46 19.1636 4.612 19.2776 5.125H18.4606ZM14.0716 3.909C14.1476 4.27 14.2426 4.726 14.2996 5.125H13.3876C13.7296 4.517 13.8436 4.308 14.0336 3.909H14.0716ZM16.2186 5.125C16.1616 4.821 16.0096 4.175 15.9336 3.909H16.6936L17.7766 5.125H16.2186ZM19.6956 9.305H14.5466V8.678H19.6956V9.305ZM19.6956 10.673V11.3H14.5466V10.673H19.6956ZM18.0236 12.972V13.618H16.3516C16.3706 13.352 16.3706 13.257 16.3706 12.972H18.0236ZM14.5466 7.329V6.683H19.6956V7.329H14.5466ZM23.7162 2.294V5.657H30.5182C30.2332 9.172 29.2642 11.642 27.7442 13.029C26.6232 14.036 25.0842 14.777 23.9442 15.005L25.0652 18.197C31.2972 16.088 33.0832 10.692 33.1402 2.294H23.7162ZM37.6547 2.294C37.0467 4.422 36.5337 5.847 34.8237 7.785L36.2677 10.236C37.2557 9.229 38.2817 7.576 39.1177 5.372H42.0247C41.4547 10.084 39.6497 14.055 35.3557 15.176L36.2867 18.216C43.0507 16.278 44.3237 7.937 44.6657 2.294H37.6547ZM46.6343 2.408V17.19H55.9063V2.408H46.6343ZM48.8953 5.543H53.6263V14.055H48.8953V5.543ZM61.3899 4.08H57.7609V10.977H60.1549V7.177H65.0569C64.7529 12.421 63.0239 14.815 58.6729 15.233L59.4899 18.349C61.4279 18.197 65.2279 16.867 66.5959 12.44C67.2989 10.179 67.4889 7.652 67.5269 4.08H63.8219V1.458H61.3899V4.08Z" fill="#2E2D49"/>
</svg>
